<svg width="24" height="27" viewBox="0 0 24 27" fill="none" xmlns="http://www.w3.org/2000/svg">
<path d="M4.68888 1.12571L0.698375 5.106C0.433875 5.36983 0.433875 5.79626 0.698375 6.06009C0.962875 6.32391 1.3904 6.32391 1.6549 6.06009L4.55899 3.16343L4.55899 5.58304C4.55899 9.95131 8.46764 13.1415 12.2484 16.2264C15.9474 19.2452 19.4413 22.0973 19.4413 25.8253C19.4413 26.1977 19.7437 26.5 20.1178 26.5C20.4919 26.5 20.7943 26.1977 20.7943 25.8253C20.7943 21.457 16.8856 18.2668 13.1048 15.1819C9.4059 12.1631 5.91193 9.31233 5.91193 5.58304L5.91193 3.25924L8.82414 6.06818C9.0927 6.32728 9.5209 6.31986 9.78067 6.05266C9.90785 5.92109 9.97076 5.75173 9.97076 5.58304C9.97076 5.40626 9.90176 5.23083 9.76443 5.09791L5.8409 1.31396C5.73199 1.08725 5.50402 0.928011 5.23546 0.928011C5.22261 0.928011 5.21246 0.934757 5.20029 0.935432C5.01629 0.925985 4.82958 0.985363 4.68888 1.12571Z" fill="white" stroke="white" stroke-width="0.5"/>
<path d="M18.1588 1.31393L14.2352 5.09788C13.9673 5.35631 13.9606 5.78342 14.2197 6.05196C14.4794 6.31916 14.9076 6.32658 15.1762 6.06748L18.0884 3.25921V5.58302C18.0884 7.67201 17.0196 9.64023 14.6235 11.9654C14.3556 12.2258 14.3489 12.6523 14.61 12.9195C14.8704 13.1867 15.2993 13.1927 15.5665 12.933C18.246 10.3325 19.4413 8.06606 19.4413 5.58302V3.1634L22.3454 6.06006C22.6099 6.32388 23.0375 6.32388 23.302 6.06006C23.4339 5.92849 23.5002 5.75575 23.5002 5.58302C23.5002 5.41028 23.4339 5.23755 23.302 5.10598L19.3115 1.12568C19.1708 0.985337 18.9847 0.92596 18.8 0.935406C18.7879 0.934731 18.7777 0.927984 18.7649 0.927984C18.4956 0.927984 18.2683 1.08722 18.1588 1.31393Z" fill="white" stroke="white" stroke-width="0.5"/>
<path d="M4.559 25.8253C4.559 25.44 4.59755 25.0527 4.67264 24.6742C5.15226 22.2552 7.16003 20.1932 8.85594 18.6669C9.00408 18.534 9.07917 18.3505 9.07917 18.1656C9.07917 18.0043 9.02167 17.8424 8.90464 17.7142C8.65435 17.4376 8.22682 17.416 7.94947 17.6656C6.09864 19.3316 3.90282 21.6041 3.34541 24.4124C3.25273 24.8766 3.20605 25.3523 3.20605 25.8253C3.20605 26.1977 3.50911 26.5 3.88253 26.5C4.25594 26.5 4.559 26.1984 4.559 25.8253Z" fill="white" stroke="white" stroke-width="0.5"/>
</svg>
